{"title":"The.Night.Manager.S01.720p.BluRay.x264-SHORTBREHD","uid":15600000,"size":16566702842,"categoryP":"video","categoryS":"hd___tv_shows","magnet":"?xt=urn:btih:7f37cbdb6efe1ce7084cff43aa32c2e2de7f884a&amp;dn=The.Night.Manager.S01.720p.BluRay.x264-SHORTBREHD&amp;tr=udp%3A%2F%2Ftracker.leechers-paradise.org%3A6969&amp;tr=udp%3A%2F%2Fzer0day.ch%3A1337&amp;tr=udp%3A%2F%2Fopen.demonii.com%3A1337&amp;tr=udp%3A%2F%2Ftracker.coppersurfer.tk%3A6969&amp;tr=udp%3A%2F%2Fexodus.desync.com%3A6969","seeders":11,"leechers":5,"uploader":"GoodFilms","files":20,"time":1471621781,"description":"http://www.imdb.com/title/tt1399664/\r\n\r\nVideo\r\nID                                       : 1\r\nFormat                                   : AVC\r\nFormat/Info                              : Advanced Video Codec\r\nFormat profile                           :   \r\nFormat settings, CABAC                   : Yes\r\nFormat settings, ReFrames                : 5 frames\r\nCodec ID                                 : V_MPEG4/ISO/AVC\r\nDuration                                 : 57mn 24s\r\nBit rate                                 : 5 086 Kbps\r\nWidth                                    : 1 280 pixels\r\nHeight                                   : 720 pixels\r\nDisplay aspect ratio                     : 16:9\r\nFrame rate mode                          : Constant\r\nFrame rate                               : 25.000 fps\r\nColor space                              : YUV\r\nChroma subsampling                       : 4:2:0\r\nBit depth                                : 8 bits\r\nScan type                                : Progressive\r\nBits/(Pixel*Frame)                       : 0.221\r\nStream size                              : 1.99 GiB (75%)\r\nWriting library                          : x264 core 148 r2665 a01e339\r\nLanguage                                 : English\r\nDefault                                  : Yes\r\nForced                                   : No\r\nStatistics Tags Issue                    : no_variable_data 1970-01-01 00:00:00 / no_variable_data 2010-02-22 21:41:29\r\nFromStats_BitRate                        : 5087149\r\nFromStats_Duration                       : 00:57:24.160000000\r\nFromStats_FrameCount                     : 86104\r\nFromStats_StreamSize                     : 2190119789\r\n\r\nAudio\r\nID                                       : 2\r\nFormat                                   : DTS\r\nFormat/Info                              : Digital Theater Systems\r\nMode                                     : 16\r\nFormat settings, Endianness              : Big\r\nCodec ID                                 : A_DTS\r\nDuration                                 : 57mn 24s\r\nBit rate mode                            : Constant\r\nBit rate                                 : 1 509 Kbps\r\nChannel(s)                               : 6 channels\r\nChannel positions                        : Front: L C R, Side: L R, LFE\r\nSampling rate                            : 48.0 KHz\r\nFrame rate                               : 93.750 fps (512 spf)\r\nBit depth                                : 24 bits\r\nCompression mode                         : Lossy\r\nStream size                              : 620 MiB (23%)\r\nLanguage                                 : English\r\nDefault                                  : Yes\r\nForced                                   : No\r\nStatistics Tags Issue                    : no_variable_data 1970-01-01 00:00:00 / no_variable_data 2010-02-22 21:41:29\r\nFromStats_BitRate                        : 1508999\r\nFromStats_Duration                       : 00:57:24.203000000\r\nFromStats_FrameCount                     : 322894\r\nFromStats_StreamSize                     : 649662728\r\n\r\nMenu\r\n00:00:00.000                             : en:00:00:00.000\r\n00:09:11.200                             : en:00:09:11.200\r\n00:21:51.280                             : en:00:21:51.280\r\n00:33:01.280                             : en:00:33:01.280\r\n00:43:55.280                             : en:00:43:55.280\r\n00:54:42.680                             : en:00:54:42.680","torrent":{"xt":"urn:btih:7f37cbdb6efe1ce7084cff43aa32c2e2de7f884a","amp;dn":"The.Night.Manager.S01.720p.BluRay.x264-SHORTBREHD","amp;tr":["udp%3A%2F%2Ftracker.leechers-paradise.org%3A6969","udp%3A%2F%2Fzer0day.ch%3A1337","udp%3A%2F%2Fopen.demonii.com%3A1337","udp%3A%2F%2Ftracker.coppersurfer.tk%3A6969","udp%3A%2F%2Fexodus.desync.com%3A6969"],"infoHash":"7f37cbdb6efe1ce7084cff43aa32c2e2de7f884a","infoHashBuffer":{"type":"Buffer","data":[127,55,203,219,110,254,28,231,8,76,255,67,170,50,194,226,222,127,136,74]},"announce":[],"urlList":[]}}